<?xml version="1.0" standalone="no"?>
<!DOCTYPE svg PUBLIC "-//W3C//DTD SVG 20010904//EN"
 "http://www.w3.org/TR/2001/REC-SVG-20010904/DTD/svg10.dtd">
<svg version="1.0" xmlns="http://www.w3.org/2000/svg"
 width="1000.000000pt" height="1000.000000pt" viewBox="0 0 1000.000000 1000.000000"
 preserveAspectRatio="xMidYMid meet">
<metadata>
Created by potrace 1.14, written by Peter Selinger 2001-2017
</metadata>
<g transform="translate(0.000000,1000.000000) scale(0.100000,-0.100000)"
fill="#000000" stroke="none">
<path d="M0 5000 l0 -5000 5000 0 5000 0 0 5000 0 5000 -5000 0 -5000 0 0
-5000z m5690 3960 c651 -46 1136 -210 1509 -511 108 -86 282 -262 354 -356
306 -400 431 -933 352 -1502 -40 -287 -147 -559 -300 -762 -72 -97 -218 -247
-321 -330 -170 -139 -418 -275 -618 -340 -58 -19 -106 -36 -106 -39 0 -4 28
-12 63 -19 186 -38 458 -159 632 -279 355 -246 634 -620 763 -1023 103 -321
119 -702 46 -1069 -55 -276 -161 -517 -334 -762 -75 -107 -270 -312 -379 -400
-390 -315 -904 -493 -1551 -538 -88 -6 -821 -10 -1877 -10 l-1733 0 0 3975 0
3975 1678 0 c1031 0 1733 -4 1822 -10z"/>
<path d="M3642 6718 l3 -1083 875 0 c946 0 947 0 1150 56 247 68 461 208 585
383 249 352 247 942 -5 1281 -41 54 -141 155 -205 205 -95 75 -248 144 -407
185 -205 51 -282 55 -1175 55 l-823 0 2 -1082z"/>
<path d="M3642 3373 l3 -1168 930 0 930 0 130 23 c296 54 507 150 674 307 220
208 321 464 321 816 0 358 -109 627 -340 842 -140 129 -330 231 -529 284 -217
58 -182 56 -1189 60 l-932 4 2 -1168z"/>
</g>
</svg>
