<svg width="321" height="87" viewBox="0 0 321 87" fill="none" xmlns="http://www.w3.org/2000/svg">
<rect width="321" height="86" fill="#FAFAFA"/>
<path d="M13.352 64V19.2H31.336C35.9867 19.2 39.528 20.288 41.96 22.464C44.4347 24.5973 45.672 27.3493 45.672 30.72C45.672 33.536 44.904 35.7973 43.368 37.504C41.8747 39.168 40.04 40.2987 37.864 40.896C40.424 41.408 42.536 42.688 44.2 44.736C45.864 46.7413 46.696 49.088 46.696 51.776C46.696 55.3173 45.416 58.24 42.856 60.544C40.296 62.848 36.6693 64 31.976 64H13.352ZM21.544 38.016H30.12C32.424 38.016 34.1947 37.4827 35.432 36.416C36.6693 35.3493 37.288 33.8347 37.288 31.872C37.288 29.9947 36.6693 28.5227 35.432 27.456C34.2373 26.3467 32.424 25.792 29.992 25.792H21.544V38.016ZM21.544 57.344H30.696C33.128 57.344 35.0053 56.7893 36.328 55.68C37.6933 54.528 38.376 52.928 38.376 50.88C38.376 48.7893 37.672 47.1467 36.264 45.952C34.856 44.7573 32.9573 44.16 30.568 44.16H21.544V57.344ZM53.535 64V17.92H61.727V64H53.535ZM81.0415 64.768C78.3108 64.768 76.0708 64.3413 74.3215 63.488C72.5722 62.592 71.2708 61.4187 70.4175 59.968C69.5642 58.5173 69.1375 56.9173 69.1375 55.168C69.1375 52.224 70.2895 49.8347 72.5935 48C74.8975 46.1653 78.3535 45.248 82.9615 45.248H91.0255V44.48C91.0255 42.304 90.4068 40.704 89.1695 39.68C87.9322 38.656 86.3962 38.144 84.5615 38.144C82.8975 38.144 81.4468 38.5493 80.2095 39.36C78.9722 40.128 78.2042 41.28 77.9055 42.816H69.9055C70.1188 40.512 70.8868 38.5067 72.2095 36.8C73.5748 35.0933 75.3242 33.792 77.4575 32.896C79.5908 31.9573 81.9802 31.488 84.6255 31.488C89.1482 31.488 92.7108 32.6187 95.3135 34.88C97.9162 37.1413 99.2175 40.3413 99.2175 44.48V64H92.2415L91.4735 58.88C90.5348 60.5867 89.2122 61.9947 87.5055 63.104C85.8415 64.2133 83.6868 64.768 81.0415 64.768ZM82.8975 58.368C85.2442 58.368 87.0575 57.6 88.3375 56.064C89.6602 54.528 90.4922 52.6293 90.8335 50.368H83.8575C81.6815 50.368 80.1242 50.7733 79.1855 51.584C78.2468 52.352 77.7775 53.312 77.7775 54.464C77.7775 55.7013 78.2468 56.6613 79.1855 57.344C80.1242 58.0267 81.3615 58.368 82.8975 58.368ZM107.035 64V17.92H115.227V37.12C116.294 35.3707 117.723 34.0053 119.515 33.024C121.35 32 123.44 31.488 125.787 31.488C129.712 31.488 132.742 32.7253 134.875 35.2C137.051 37.6747 138.139 41.3013 138.139 46.08V64H130.011V46.848C130.011 44.1173 129.456 42.0267 128.347 40.576C127.28 39.1253 125.574 38.4 123.227 38.4C120.923 38.4 119.003 39.2107 117.467 40.832C115.974 42.4533 115.227 44.7147 115.227 47.616V64H107.035ZM145.973 64V32.256H153.205L153.845 37.632C154.826 35.7547 156.234 34.2613 158.069 33.152C159.946 32.0427 162.143 31.488 164.661 31.488C168.586 31.488 171.637 32.7253 173.812 35.2C175.988 37.6747 177.076 41.3013 177.076 46.08V64H168.885V46.848C168.885 44.1173 168.33 42.0267 167.221 40.576C166.111 39.1253 164.383 38.4 162.037 38.4C159.733 38.4 157.834 39.2107 156.341 40.832C154.89 42.4533 154.165 44.7147 154.165 47.616V64H145.973ZM189.326 27.328C187.833 27.328 186.595 26.88 185.614 25.984C184.675 25.088 184.206 23.9573 184.206 22.592C184.206 21.2267 184.675 20.1173 185.614 19.264C186.595 18.368 187.833 17.92 189.326 17.92C190.819 17.92 192.035 18.368 192.974 19.264C193.955 20.1173 194.446 21.2267 194.446 22.592C194.446 23.9573 193.955 25.088 192.974 25.984C192.035 26.88 190.819 27.328 189.326 27.328ZM185.23 64V32.256H193.422V64H185.23ZM201.973 64V17.92H210.165V45.12L221.429 32.256H231.157L218.165 46.72L233.269 64H223.029L210.165 48.064V64H201.973ZM241.868 64.448C240.374 64.448 239.137 63.9787 238.156 63.04C237.217 62.1013 236.748 60.9707 236.748 59.648C236.748 58.2827 237.217 57.1307 238.156 56.192C239.137 55.2533 240.374 54.784 241.868 54.784C243.361 54.784 244.577 55.2533 245.516 56.192C246.497 57.1307 246.988 58.2827 246.988 59.648C246.988 60.9707 246.497 62.1013 245.516 63.04C244.577 63.9787 243.361 64.448 241.868 64.448ZM264.667 64.768C261.936 64.768 259.696 64.3413 257.947 63.488C256.197 62.592 254.896 61.4187 254.043 59.968C253.189 58.5173 252.763 56.9173 252.763 55.168C252.763 52.224 253.915 49.8347 256.219 48C258.523 46.1653 261.979 45.248 266.587 45.248H274.651V44.48C274.651 42.304 274.032 40.704 272.795 39.68C271.557 38.656 270.021 38.144 268.187 38.144C266.523 38.144 265.072 38.5493 263.835 39.36C262.597 40.128 261.829 41.28 261.531 42.816H253.531C253.744 40.512 254.512 38.5067 255.835 36.8C257.2 35.0933 258.949 33.792 261.083 32.896C263.216 31.9573 265.605 31.488 268.251 31.488C272.773 31.488 276.336 32.6187 278.939 34.88C281.541 37.1413 282.843 40.3413 282.843 44.48V64H275.867L275.099 58.88C274.16 60.5867 272.837 61.9947 271.131 63.104C269.467 64.2133 267.312 64.768 264.667 64.768ZM266.523 58.368C268.869 58.368 270.683 57.6 271.963 56.064C273.285 54.528 274.117 52.6293 274.459 50.368H267.483C265.307 50.368 263.749 50.7733 262.811 51.584C261.872 52.352 261.403 53.312 261.403 54.464C261.403 55.7013 261.872 56.6613 262.811 57.344C263.749 58.0267 264.987 58.368 266.523 58.368ZM295.076 27.328C293.583 27.328 292.345 26.88 291.364 25.984C290.425 25.088 289.956 23.9573 289.956 22.592C289.956 21.2267 290.425 20.1173 291.364 19.264C292.345 18.368 293.583 17.92 295.076 17.92C296.569 17.92 297.785 18.368 298.724 19.264C299.705 20.1173 300.196 21.2267 300.196 22.592C300.196 23.9573 299.705 25.088 298.724 25.984C297.785 26.88 296.569 27.328 295.076 27.328ZM290.98 64V32.256H299.172V64H290.98Z" fill="#FEE715"/>
<path d="M13.352 64H12.352V65H13.352V64ZM13.352 19.2V18.2H12.352V19.2H13.352ZM41.96 22.464L41.2932 23.2092L41.3001 23.2154L41.3071 23.2214L41.96 22.464ZM43.368 37.504L42.6247 36.835L42.6238 36.8361L43.368 37.504ZM37.864 40.896L37.5993 39.9317L37.6679 41.8766L37.864 40.896ZM44.2 44.736L43.4238 45.3666L43.4304 45.3746L44.2 44.736ZM42.856 60.544L43.525 61.2873L43.525 61.2873L42.856 60.544ZM21.544 38.016H20.544V39.016H21.544V38.016ZM35.432 27.456L34.7516 28.1888L34.7651 28.2014L34.7791 28.2134L35.432 27.456ZM21.544 25.792V24.792H20.544V25.792H21.544ZM21.544 57.344H20.544V58.344H21.544V57.344ZM36.328 55.68L36.9706 56.4462L36.9729 56.4443L36.328 55.68ZM36.264 45.952L36.911 45.1895L36.911 45.1895L36.264 45.952ZM21.544 44.16V43.16H20.544V44.16H21.544ZM14.352 64V19.2H12.352V64H14.352ZM13.352 20.2H31.336V18.2H13.352V20.2ZM31.336 20.2C35.8444 20.2 39.1094 21.2553 41.2932 23.2092L42.6268 21.7188C39.9466 19.3207 36.129 18.2 31.336 18.2V20.2ZM41.3071 23.2214C43.5535 25.158 44.672 27.6297 44.672 30.72H46.672C46.672 27.0689 45.3158 24.0367 42.6129 21.7066L41.3071 23.2214ZM44.672 30.72C44.672 33.3475 43.9601 35.3513 42.6247 36.835L44.1113 38.173C45.8479 36.2434 46.672 33.7245 46.672 30.72H44.672ZM42.6238 36.8361C41.2598 38.3559 39.5921 39.3846 37.5993 39.9317L38.1287 41.8603C40.4879 41.2127 42.4896 39.9801 44.1122 38.1719L42.6238 36.8361ZM37.6679 41.8766C39.9971 42.3424 41.9049 43.4971 43.4239 45.3666L44.9761 44.1054C43.1671 41.8789 40.851 40.4736 38.0601 39.9154L37.6679 41.8766ZM43.4304 45.3746C44.9405 47.1944 45.696 49.3132 45.696 51.776H47.696C47.696 48.8628 46.7875 46.2883 44.9696 44.0974L43.4304 45.3746ZM45.696 51.776C45.696 55.043 44.5296 57.6924 42.187 59.8007L43.525 61.2873C46.3024 58.7876 47.696 55.5917 47.696 51.776H45.696ZM42.187 59.8007C39.8683 61.8876 36.5127 63 31.976 63V65C36.826 65 40.7237 63.8084 43.525 61.2873L42.187 59.8007ZM31.976 63H13.352V65H31.976V63ZM21.544 39.016H30.12V37.016H21.544V39.016ZM30.12 39.016C32.5663 39.016 34.6038 38.4502 36.0849 37.1734L34.7791 35.6586C33.7855 36.5151 32.2817 37.016 30.12 37.016V39.016ZM36.0849 37.1734C37.587 35.8785 38.288 34.0614 38.288 31.872H36.288C36.288 33.608 35.7516 34.8202 34.7791 35.6586L36.0849 37.1734ZM38.288 31.872C38.288 29.752 37.5767 27.9846 36.0849 26.6986L34.7791 28.2134C35.762 29.0607 36.288 30.2374 36.288 31.872H38.288ZM36.1125 26.7232C34.6597 25.3742 32.5548 24.792 29.992 24.792V26.792C32.2932 26.792 33.815 27.3191 34.7516 28.1888L36.1125 26.7232ZM29.992 24.792H21.544V26.792H29.992V24.792ZM20.544 25.792V38.016H22.544V25.792H20.544ZM21.544 58.344H30.696V56.344H21.544V58.344ZM30.696 58.344C33.2682 58.344 35.4066 57.758 36.9706 56.4462L35.6854 54.9138C34.6041 55.8207 32.9878 56.344 30.696 56.344V58.344ZM36.9729 56.4443C38.5978 55.0733 39.376 53.1745 39.376 50.88H37.376C37.376 52.6815 36.7889 53.9827 35.6831 54.9157L36.9729 56.4443ZM39.376 50.88C39.376 48.5391 38.5741 46.6006 36.911 45.1895L35.617 46.7145C36.7699 47.6927 37.376 49.0395 37.376 50.88H39.376ZM36.911 45.1895C35.2746 43.8011 33.1233 43.16 30.568 43.16V45.16C32.7914 45.16 34.4374 45.7136 35.617 46.7145L36.911 45.1895ZM30.568 43.16H21.544V45.16H30.568V43.16ZM20.544 44.16V57.344H22.544V44.16H20.544ZM53.535 64H52.535V65H53.535V64ZM53.535 17.92V16.92H52.535V17.92H53.535ZM61.727 17.92H62.727V16.92H61.727V17.92ZM61.727 64V65H62.727V64H61.727ZM54.535 64V17.92H52.535V64H54.535ZM53.535 18.92H61.727V16.92H53.535V18.92ZM60.727 17.92V64H62.727V17.92H60.727ZM61.727 63H53.535V65H61.727V63ZM74.3215 63.488L73.8656 64.378L73.8743 64.3825L73.8831 64.3868L74.3215 63.488ZM70.4175 59.968L69.5556 60.475L69.5556 60.475L70.4175 59.968ZM72.5935 48L73.2164 48.7823L73.2164 48.7823L72.5935 48ZM91.0255 45.248V46.248H92.0255V45.248H91.0255ZM89.1695 39.68L89.8071 38.9096L89.8071 38.9096L89.1695 39.68ZM80.2095 39.36L80.7369 40.2096L80.7473 40.2032L80.7575 40.1965L80.2095 39.36ZM77.9055 42.816V43.816H78.7298L78.8871 43.0069L77.9055 42.816ZM69.9055 42.816L68.9098 42.7238L68.8086 43.816H69.9055V42.816ZM72.2095 36.8L71.4286 36.1753L71.4238 36.1813L71.4191 36.1874L72.2095 36.8ZM77.4575 32.896L77.8447 33.818L77.8525 33.8147L77.8602 33.8113L77.4575 32.896ZM95.3135 34.88L94.6576 35.6349L94.6576 35.6349L95.3135 34.88ZM99.2175 64V65H100.218V64H99.2175ZM92.2415 64L91.2526 64.1483L91.3803 65H92.2415V64ZM91.4735 58.88L92.4624 58.7317L92.0234 55.8051L90.5973 58.3981L91.4735 58.88ZM87.5055 63.104L86.9605 62.2655L86.9508 62.2719L87.5055 63.104ZM88.3375 56.064L87.5797 55.4115L87.5745 55.4176L87.5693 55.4238L88.3375 56.064ZM90.8335 50.368L91.8223 50.5173L91.9958 49.368H90.8335V50.368ZM79.1855 51.584L79.8187 52.358L79.829 52.3495L79.8391 52.3408L79.1855 51.584ZM79.1855 57.344L79.7737 56.5353L79.7737 56.5353L79.1855 57.344ZM81.0415 63.768C78.4054 63.768 76.3291 63.3547 74.7599 62.5892L73.8831 64.3868C75.8126 65.328 78.2163 65.768 81.0415 65.768V63.768ZM74.7774 62.598C73.1681 61.7737 72.0213 60.7221 71.2794 59.461L69.5556 60.475C70.5204 62.1152 71.9762 63.4103 73.8656 64.378L74.7774 62.598ZM71.2794 59.461C70.5201 58.1702 70.1375 56.7464 70.1375 55.168H68.1375C68.1375 57.0883 68.6082 58.8645 69.5556 60.475L71.2794 59.461ZM70.1375 55.168C70.1375 52.5287 71.1506 50.4273 73.2164 48.7823L71.9706 47.2177C69.4284 49.242 68.1375 51.9193 68.1375 55.168H70.1375ZM73.2164 48.7823C75.268 47.1487 78.4595 46.248 82.9615 46.248V44.248C78.2475 44.248 74.527 45.182 71.9706 47.2177L73.2164 48.7823ZM82.9615 46.248H91.0255V44.248H82.9615V46.248ZM92.0255 45.248V44.48H90.0255V45.248H92.0255ZM92.0255 44.48C92.0255 42.1181 91.3482 40.185 89.8071 38.9096L88.5319 40.4504C89.4655 41.223 90.0255 42.4899 90.0255 44.48H92.0255ZM89.8071 38.9096C88.3652 37.7163 86.5939 37.144 84.5615 37.144V39.144C86.1984 39.144 87.4992 39.5957 88.5319 40.4504L89.8071 38.9096ZM84.5615 37.144C82.7279 37.144 81.0815 37.5932 79.6615 38.5235L80.7575 40.1965C81.8122 39.5055 83.0671 39.144 84.5615 39.144V37.144ZM79.6821 38.5104C78.1893 39.437 77.2713 40.8387 76.9239 42.6251L78.8871 43.0069C79.1371 41.7213 79.7551 40.819 80.7369 40.2096L79.6821 38.5104ZM77.9055 41.816H69.9055V43.816H77.9055V41.816ZM70.9012 42.9082C71.0983 40.7795 71.8022 38.958 72.9999 37.4126L71.4191 36.1874C69.9714 38.0554 69.1393 40.2445 68.9098 42.7238L70.9012 42.9082ZM72.9904 37.4247C74.2452 35.8561 75.856 34.6532 77.8447 33.818L77.0703 31.974C74.7923 32.9308 72.9044 34.3305 71.4286 36.1753L72.9904 37.4247ZM77.8602 33.8113C79.8506 32.9356 82.1001 32.488 84.6255 32.488V30.488C81.8602 30.488 79.3311 30.9791 77.0548 31.9807L77.8602 33.8113ZM84.6255 32.488C88.9836 32.488 92.2873 33.5754 94.6576 35.6349L95.9694 34.1251C93.1343 31.6619 89.3127 30.488 84.6255 30.488V32.488ZM94.6576 35.6349C96.9979 37.6682 98.2175 40.5674 98.2175 44.48H100.218C100.218 40.1153 98.8344 36.6144 95.9694 34.1251L94.6576 35.6349ZM98.2175 44.48V64H100.218V44.48H98.2175ZM99.2175 63H92.2415V65H99.2175V63ZM93.2304 63.8517L92.4624 58.7317L90.4846 59.0283L91.2526 64.1483L93.2304 63.8517ZM90.5973 58.3981C89.7416 59.9539 88.5355 61.2418 86.9605 62.2656L88.0505 63.9424C89.8888 62.7475 91.3281 61.2195 92.3497 59.3619L90.5973 58.3981ZM86.9508 62.2719C85.4964 63.2415 83.552 63.768 81.0415 63.768V65.768C83.8216 65.768 86.1866 65.1851 88.0602 63.9361L86.9508 62.2719ZM82.8975 59.368C85.4837 59.368 87.6019 58.5088 89.1057 56.7042L87.5693 55.4238C86.5131 56.6912 85.0046 57.368 82.8975 57.368V59.368ZM89.0953 56.7165C90.556 55.0202 91.4566 52.9402 91.8223 50.5173L89.8447 50.2187C89.5278 52.3185 88.7643 54.0358 87.5797 55.4115L89.0953 56.7165ZM90.8335 49.368H83.8575V51.368H90.8335V49.368ZM83.8575 49.368C81.6054 49.368 79.7464 49.7783 78.5319 50.8272L79.8391 52.3408C80.5019 51.7684 81.7576 51.368 83.8575 51.368V49.368ZM78.5523 50.81C77.3956 51.7564 76.7775 52.9943 76.7775 54.464H78.7775C78.7775 53.6297 79.0981 52.9476 79.8187 52.358L78.5523 50.81ZM76.7775 54.464C76.7775 55.9965 77.3805 57.2678 78.5973 58.1527L79.7737 56.5353C79.1131 56.0549 78.7775 55.4061 78.7775 54.464H76.7775ZM78.5973 58.1527C79.7546 58.9944 81.218 59.368 82.8975 59.368V57.368C81.505 57.368 80.4937 57.0589 79.7737 56.5353L78.5973 58.1527ZM107.035 64H106.035V65H107.035V64ZM107.035 17.92V16.92H106.035V17.92H107.035ZM115.227 17.92H116.227V16.92H115.227V17.92ZM115.227 37.12H114.227V40.6808L116.081 37.6406L115.227 37.12ZM119.515 33.024L119.995 33.9011L120.002 33.8972L119.515 33.024ZM134.875 35.2L134.118 35.853L134.124 35.8603L134.875 35.2ZM138.139 64V65H139.139V64H138.139ZM130.011 64H129.011V65H130.011V64ZM128.347 40.576L127.541 41.1684L127.547 41.176L127.553 41.1834L128.347 40.576ZM117.467 40.832L116.741 40.1442L116.731 40.1545L117.467 40.832ZM115.227 64V65H116.227V64H115.227ZM108.035 64V17.92H106.035V64H108.035ZM107.035 18.92H115.227V16.92H107.035V18.92ZM114.227 17.92V37.12H116.227V17.92H114.227ZM116.081 37.6406C117.057 36.0403 118.357 34.7981 119.995 33.9011L119.035 32.1469C117.089 33.2126 115.531 34.701 114.373 36.5994L116.081 37.6406ZM120.002 33.8972C121.671 32.9657 123.591 32.488 125.787 32.488V30.488C123.29 30.488 121.028 31.0343 119.028 32.1508L120.002 33.8972ZM125.787 32.488C129.486 32.488 132.212 33.643 134.118 35.8529L135.632 34.5471C133.271 31.8076 129.939 30.488 125.787 30.488V32.488ZM134.124 35.8603C136.08 38.0853 137.139 41.4369 137.139 46.08H139.139C139.139 41.1658 138.022 37.264 135.626 34.5397L134.124 35.8603ZM137.139 46.08V64H139.139V46.08H137.139ZM138.139 63H130.011V65H138.139V63ZM131.011 64V46.848H129.011V64H131.011ZM131.011 46.848C131.011 44.0015 130.436 41.6612 129.141 39.9685L127.553 41.1834C128.477 42.3922 129.011 44.2332 129.011 46.848H131.011ZM129.153 39.9836C127.843 38.2019 125.786 37.4 123.227 37.4V39.4C125.361 39.4 126.718 40.0488 127.541 41.1684L129.153 39.9836ZM123.227 37.4C120.658 37.4 118.473 38.3166 116.741 40.1443L118.193 41.5197C119.533 40.1048 121.188 39.4 123.227 39.4V37.4ZM116.731 40.1545C115.02 42.0127 114.227 44.545 114.227 47.616H116.227C116.227 44.8843 116.927 42.894 118.203 41.5095L116.731 40.1545ZM114.227 47.616V64H116.227V47.616H114.227ZM115.227 63H107.035V65H115.227V63ZM145.973 64H144.973V65H145.973V64ZM145.973 32.256V31.256H144.973V32.256H145.973ZM153.205 32.256L154.197 32.1378L154.093 31.256H153.205V32.256ZM153.845 37.632L152.852 37.7502L153.234 40.9594L154.731 38.0953L153.845 37.632ZM158.069 33.152L157.56 32.291L157.551 32.2963L158.069 33.152ZM173.812 35.2L173.062 35.8603L173.062 35.8603L173.812 35.2ZM177.076 64V65H178.076V64H177.076ZM168.885 64H167.885V65H168.885V64ZM167.221 40.576L168.015 39.9685L168.015 39.9685L167.221 40.576ZM156.341 40.832L155.605 40.1545L155.6 40.1598L155.595 40.1652L156.341 40.832ZM154.165 64V65H155.165V64H154.165ZM146.973 64V32.256H144.973V64H146.973ZM145.973 33.256H153.205V31.256H145.973V33.256ZM152.212 32.3742L152.852 37.7502L154.837 37.5138L154.197 32.1378L152.212 32.3742ZM154.731 38.0953C155.626 36.3821 156.906 35.0236 158.586 34.0077L157.551 32.2963C155.562 33.499 154.025 35.1273 152.958 37.1687L154.731 38.0953ZM158.577 34.0129C160.278 33.0079 162.294 32.488 164.661 32.488V30.488C161.992 30.488 159.614 31.0774 157.56 32.2911L158.577 34.0129ZM164.661 32.488C168.359 32.488 171.112 33.643 173.062 35.8603L174.563 34.5397C172.161 31.8076 168.813 30.488 164.661 30.488V32.488ZM173.062 35.8603C175.018 38.0853 176.076 41.4369 176.076 46.08H178.076C178.076 41.1658 176.959 37.264 174.563 34.5397L173.062 35.8603ZM176.076 46.08V64H178.076V46.08H176.076ZM177.076 63H168.885V65H177.076V63ZM169.885 64V46.848H167.885V64H169.885ZM169.885 46.848C169.885 44.0015 169.309 41.6612 168.015 39.9685L166.426 41.1834C167.35 42.3922 167.885 44.2332 167.885 46.848H169.885ZM168.015 39.9685C166.664 38.2023 164.597 37.4 162.037 37.4V39.4C164.169 39.4 165.558 40.0484 166.426 41.1834L168.015 39.9685ZM162.037 37.4C159.467 37.4 157.297 38.3173 155.605 40.1545L157.076 41.5095C158.371 40.104 159.998 39.4 162.037 39.4V37.4ZM155.595 40.1652C153.932 42.0238 153.165 44.552 153.165 47.616H155.165C155.165 44.8773 155.847 42.8829 157.086 41.4988L155.595 40.1652ZM153.165 47.616V64H155.165V47.616H153.165ZM154.165 63H145.973V65H154.165V63ZM185.614 25.984L184.924 26.7074L184.932 26.715L184.94 26.7225L185.614 25.984ZM185.614 19.264L186.287 20.0039L186.288 20.0025L185.614 19.264ZM192.974 19.264L192.284 19.9874L192.3 20.0034L192.318 20.0186L192.974 19.264ZM192.974 25.984L192.3 25.2455L192.292 25.253L192.284 25.2606L192.974 25.984ZM185.23 64H184.23V65H185.23V64ZM185.23 32.256V31.256H184.23V32.256H185.23ZM193.422 32.256H194.422V31.256H193.422V32.256ZM193.422 64V65H194.422V64H193.422ZM189.326 26.328C188.049 26.328 187.062 25.9521 186.288 25.2455L184.94 26.7225C186.128 27.8079 187.616 28.328 189.326 28.328V26.328ZM186.304 25.2606C185.575 24.5641 185.206 23.7 185.206 22.592H183.206C183.206 24.2146 183.776 25.6119 184.924 26.7074L186.304 25.2606ZM185.206 22.592C185.206 21.4843 185.574 20.6521 186.287 20.0039L184.941 18.5241C183.777 19.5826 183.206 20.969 183.206 22.592H185.206ZM186.288 20.0025C187.062 19.2959 188.049 18.92 189.326 18.92V16.92C187.616 16.92 186.128 17.4401 184.94 18.5255L186.288 20.0025ZM189.326 18.92C190.604 18.92 191.559 19.2958 192.284 19.9874L193.664 18.5406C192.512 17.4402 191.035 16.92 189.326 16.92V18.92ZM192.318 20.0186C193.069 20.6715 193.446 21.4997 193.446 22.592H195.446C195.446 20.9537 194.842 19.5632 193.63 18.5094L192.318 20.0186ZM193.446 22.592C193.446 23.6851 193.067 24.5448 192.3 25.2455L193.648 26.7225C194.843 25.6312 195.446 24.2296 195.446 22.592H193.446ZM192.284 25.2606C191.559 25.9522 190.604 26.328 189.326 26.328V28.328C191.035 28.328 192.512 27.8078 193.664 26.7074L192.284 25.2606ZM186.23 64V32.256H184.23V64H186.23ZM185.23 33.256H193.422V31.256H185.23V33.256ZM192.422 32.256V64H194.422V32.256H192.422ZM193.422 63H185.23V65H193.422V63ZM201.973 64H200.973V65H201.973V64ZM201.973 17.92V16.92H200.973V17.92H201.973ZM210.165 17.92H211.165V16.92H210.165V17.92ZM210.165 45.12H209.165V47.78L210.917 45.7788L210.165 45.12ZM221.429 32.256V31.256H220.975L220.676 31.5972L221.429 32.256ZM231.157 32.256L231.9 32.9242L233.399 31.256H231.157V32.256ZM218.165 46.72L217.421 46.0518L216.828 46.711L217.412 47.3781L218.165 46.72ZM233.269 64V65H235.471L234.021 63.3419L233.269 64ZM223.029 64L222.25 64.6281L222.551 65H223.029V64ZM210.165 48.064L210.943 47.4359L209.165 45.2331V48.064H210.165ZM210.165 64V65H211.165V64H210.165ZM202.973 64V17.92H200.973V64H202.973ZM201.973 18.92H210.165V16.92H201.973V18.92ZM209.165 17.92V45.12H211.165V17.92H209.165ZM210.917 45.7788L222.181 32.9148L220.676 31.5972L209.412 44.4612L210.917 45.7788ZM221.429 33.256H231.157V31.256H221.429V33.256ZM230.413 31.5878L217.421 46.0518L218.908 47.3882L231.9 32.9242L230.413 31.5878ZM217.412 47.3781L232.516 64.6581L234.021 63.3419L218.917 46.0619L217.412 47.3781ZM233.269 63H223.029V65H233.269V63ZM223.807 63.3719L210.943 47.4359L209.386 48.6921L222.25 64.6281L223.807 63.3719ZM209.165 48.064V64H211.165V48.064H209.165ZM210.165 63H201.973V65H210.165V63ZM238.156 63.04L237.448 63.7471L237.456 63.755L237.464 63.7626L238.156 63.04ZM238.156 56.192L237.464 55.4694L237.456 55.477L237.448 55.4849L238.156 56.192ZM245.516 56.192L244.808 56.8991L244.816 56.907L244.824 56.9146L245.516 56.192ZM245.516 63.04L244.824 62.3174L244.816 62.325L244.808 62.3329L245.516 63.04ZM241.868 63.448C240.604 63.448 239.623 63.0596 238.847 62.3174L237.464 63.7626C238.651 64.8978 240.145 65.448 241.868 65.448V63.448ZM238.863 62.3329C238.111 61.581 237.748 60.7044 237.748 59.648H235.748C235.748 61.237 236.323 62.6217 237.448 63.7471L238.863 62.3329ZM237.748 59.648C237.748 58.5394 238.117 57.6443 238.863 56.8991L237.448 55.4849C236.316 56.617 235.748 58.0259 235.748 59.648H237.748ZM238.847 56.9146C239.623 56.1724 240.604 55.784 241.868 55.784V53.784C240.145 53.784 238.651 54.3342 237.464 55.4694L238.847 56.9146ZM241.868 55.784C243.132 55.784 244.081 56.1721 244.808 56.8991L246.223 55.4849C245.072 54.3346 243.59 53.784 241.868 53.784V55.784ZM244.824 56.9146C245.607 57.6635 245.988 58.5539 245.988 59.648H247.988C247.988 58.0114 247.386 56.5978 246.207 55.4694L244.824 56.9146ZM245.988 59.648C245.988 60.6896 245.614 61.5617 244.824 62.3174L246.207 63.7626C247.379 62.641 247.988 61.2517 247.988 59.648H245.988ZM244.808 62.3329C244.081 63.0599 243.132 63.448 241.868 63.448V65.448C243.59 65.448 245.072 64.8974 246.223 63.7471L244.808 62.3329ZM257.947 63.488L257.491 64.378L257.499 64.3825L257.508 64.3868L257.947 63.488ZM254.043 59.968L253.181 60.475L253.181 60.475L254.043 59.968ZM256.219 48L256.841 48.7823L256.841 48.7823L256.219 48ZM274.651 45.248V46.248H275.651V45.248H274.651ZM272.795 39.68L273.432 38.9096L273.432 38.9096L272.795 39.68ZM263.835 39.36L264.362 40.2096L264.372 40.2032L264.383 40.1965L263.835 39.36ZM261.531 42.816V43.816H262.355L262.512 43.0069L261.531 42.816ZM253.531 42.816L252.535 42.7238L252.434 43.816H253.531V42.816ZM255.835 36.8L255.054 36.1753L255.049 36.1813L255.044 36.1874L255.835 36.8ZM261.083 32.896L261.47 33.818L261.478 33.8147L261.485 33.8113L261.083 32.896ZM278.939 34.88L278.283 35.6349L278.283 35.6349L278.939 34.88ZM282.843 64V65H283.843V64H282.843ZM275.867 64L274.878 64.1483L275.005 65H275.867V64ZM275.099 58.88L276.087 58.7317L275.648 55.8051L274.222 58.3981L275.099 58.88ZM271.131 63.104L270.585 62.2655L270.576 62.2719L271.131 63.104ZM271.963 56.064L271.205 55.4115L271.199 55.4176L271.194 55.4238L271.963 56.064ZM274.459 50.368L275.447 50.5173L275.621 49.368H274.459V50.368ZM262.811 51.584L263.444 52.358L263.454 52.3495L263.464 52.3408L262.811 51.584ZM262.811 57.344L263.399 56.5353L263.399 56.5353L262.811 57.344ZM264.667 63.768C262.03 63.768 259.954 63.3547 258.385 62.5892L257.508 64.3868C259.438 65.328 261.841 65.768 264.667 65.768V63.768ZM258.402 62.598C256.793 61.7737 255.646 60.7221 254.904 59.461L253.181 60.475C254.145 62.1152 255.601 63.4103 257.491 64.378L258.402 62.598ZM254.904 59.461C254.145 58.1702 253.763 56.7464 253.763 55.168H251.763C251.763 57.0883 252.233 58.8645 253.181 60.475L254.904 59.461ZM253.763 55.168C253.763 52.5287 254.776 50.4273 256.841 48.7823L255.596 47.2177C253.053 49.242 251.763 51.9193 251.763 55.168H253.763ZM256.841 48.7823C258.893 47.1487 262.085 46.248 266.587 46.248V44.248C261.872 44.248 258.152 45.182 255.596 47.2177L256.841 48.7823ZM266.587 46.248H274.651V44.248H266.587V46.248ZM275.651 45.248V44.48H273.651V45.248H275.651ZM275.651 44.48C275.651 42.1181 274.973 40.185 273.432 38.9096L272.157 40.4504C273.09 41.223 273.651 42.4899 273.651 44.48H275.651ZM273.432 38.9096C271.99 37.7163 270.219 37.144 268.187 37.144V39.144C269.823 39.144 271.124 39.5957 272.157 40.4504L273.432 38.9096ZM268.187 37.144C266.353 37.144 264.706 37.5932 263.286 38.5235L264.383 40.1965C265.437 39.5055 266.692 39.144 268.187 39.144V37.144ZM263.307 38.5104C261.814 39.437 260.896 40.8387 260.549 42.6251L262.512 43.0069C262.762 41.7213 263.38 40.819 264.362 40.2096L263.307 38.5104ZM261.531 41.816H253.531V43.816H261.531V41.816ZM254.526 42.9082C254.723 40.7795 255.427 38.958 256.625 37.4126L255.044 36.1874C253.596 38.0554 252.764 40.2445 252.535 42.7238L254.526 42.9082ZM256.615 37.4247C257.87 35.8561 259.481 34.6532 261.47 33.818L260.695 31.974C258.417 32.9308 256.529 34.3305 255.054 36.1753L256.615 37.4247ZM261.485 33.8113C263.476 32.9356 265.725 32.488 268.251 32.488V30.488C265.485 30.488 262.956 30.9791 260.68 31.9807L261.485 33.8113ZM268.251 32.488C272.609 32.488 275.912 33.5754 278.283 35.6349L279.594 34.1251C276.759 31.6619 272.938 30.488 268.251 30.488V32.488ZM278.283 35.6349C280.623 37.6682 281.843 40.5674 281.843 44.48H283.843C283.843 40.1153 282.459 36.6144 279.594 34.1251L278.283 35.6349ZM281.843 44.48V64H283.843V44.48H281.843ZM282.843 63H275.867V65H282.843V63ZM276.855 63.8517L276.087 58.7317L274.11 59.0283L274.878 64.1483L276.855 63.8517ZM274.222 58.3981C273.367 59.9539 272.161 61.2418 270.586 62.2656L271.675 63.9424C273.514 62.7475 274.953 61.2195 275.975 59.3619L274.222 58.3981ZM270.576 62.2719C269.121 63.2415 267.177 63.768 264.667 63.768V65.768C267.447 65.768 269.812 65.1851 271.685 63.9361L270.576 62.2719ZM266.523 59.368C269.109 59.368 271.227 58.5088 272.731 56.7042L271.194 55.4238C270.138 56.6912 268.63 57.368 266.523 57.368V59.368ZM272.72 56.7165C274.181 55.0202 275.082 52.9402 275.447 50.5173L273.47 50.2187C273.153 52.3185 272.389 54.0358 271.205 55.4115L272.72 56.7165ZM274.459 49.368H267.483V51.368H274.459V49.368ZM267.483 49.368C265.23 49.368 263.371 49.7783 262.157 50.8272L263.464 52.3408C264.127 51.7684 265.383 51.368 267.483 51.368V49.368ZM262.177 50.81C261.021 51.7564 260.403 52.9943 260.403 54.464H262.403C262.403 53.6297 262.723 52.9476 263.444 52.358L262.177 50.81ZM260.403 54.464C260.403 55.9965 261.006 57.2678 262.222 58.1527L263.399 56.5353C262.738 56.0549 262.403 55.4061 262.403 54.464H260.403ZM262.222 58.1527C263.38 58.9944 264.843 59.368 266.523 59.368V57.368C265.13 57.368 264.119 57.0589 263.399 56.5353L262.222 58.1527ZM291.364 25.984L290.674 26.7074L290.682 26.715L290.69 26.7225L291.364 25.984ZM291.364 19.264L292.037 20.0039L292.038 20.0025L291.364 19.264ZM298.724 19.264L298.034 19.9874L298.05 20.0034L298.068 20.0186L298.724 19.264ZM298.724 25.984L298.05 25.2455L298.042 25.253L298.034 25.2606L298.724 25.984ZM290.98 64H289.98V65H290.98V64ZM290.98 32.256V31.256H289.98V32.256H290.98ZM299.172 32.256H300.172V31.256H299.172V32.256ZM299.172 64V65H300.172V64H299.172ZM295.076 26.328C293.799 26.328 292.812 25.9521 292.038 25.2455L290.69 26.7225C291.878 27.8079 293.366 28.328 295.076 28.328V26.328ZM292.054 25.2606C291.325 24.5641 290.956 23.7 290.956 22.592H288.956C288.956 24.2146 289.526 25.6119 290.674 26.7074L292.054 25.2606ZM290.956 22.592C290.956 21.4843 291.324 20.6521 292.037 20.0039L290.691 18.5241C289.527 19.5826 288.956 20.969 288.956 22.592H290.956ZM292.038 20.0025C292.812 19.2959 293.799 18.92 295.076 18.92V16.92C293.366 16.92 291.878 17.4401 290.69 18.5255L292.038 20.0025ZM295.076 18.92C296.354 18.92 297.309 19.2958 298.034 19.9874L299.414 18.5406C298.262 17.4402 296.785 16.92 295.076 16.92V18.92ZM298.068 20.0186C298.819 20.6715 299.196 21.4997 299.196 22.592H301.196C301.196 20.9537 300.592 19.5632 299.38 18.5094L298.068 20.0186ZM299.196 22.592C299.196 23.6851 298.817 24.5448 298.05 25.2455L299.398 26.7225C300.593 25.6312 301.196 24.2296 301.196 22.592H299.196ZM298.034 25.2606C297.309 25.9522 296.354 26.328 295.076 26.328V28.328C296.785 28.328 298.262 27.8078 299.414 26.7074L298.034 25.2606ZM291.98 64V32.256H289.98V64H291.98ZM290.98 33.256H299.172V31.256H290.98V33.256ZM298.172 32.256V64H300.172V32.256H298.172ZM299.172 63H290.98V65H299.172V63Z" fill="black"/>
<path d="M16.352 67V22.2H34.336C38.9867 22.2 42.528 23.288 44.96 25.464C47.4347 27.5973 48.672 30.3493 48.672 33.72C48.672 36.536 47.904 38.7973 46.368 40.504C44.8747 42.168 43.04 43.2987 40.864 43.896C43.424 44.408 45.536 45.688 47.2 47.736C48.864 49.7413 49.696 52.088 49.696 54.776C49.696 58.3173 48.416 61.24 45.856 63.544C43.296 65.848 39.6693 67 34.976 67H16.352ZM24.544 41.016H33.12C35.424 41.016 37.1947 40.4827 38.432 39.416C39.6693 38.3493 40.288 36.8347 40.288 34.872C40.288 32.9947 39.6693 31.5227 38.432 30.456C37.2373 29.3467 35.424 28.792 32.992 28.792H24.544V41.016ZM24.544 60.344H33.696C36.128 60.344 38.0053 59.7893 39.328 58.68C40.6933 57.528 41.376 55.928 41.376 53.88C41.376 51.7893 40.672 50.1467 39.264 48.952C37.856 47.7573 35.9573 47.16 33.568 47.16H24.544V60.344ZM56.535 67V20.92H64.727V67H56.535ZM84.0415 67.768C81.3108 67.768 79.0708 67.3413 77.3215 66.488C75.5722 65.592 74.2708 64.4187 73.4175 62.968C72.5642 61.5173 72.1375 59.9173 72.1375 58.168C72.1375 55.224 73.2895 52.8347 75.5935 51C77.8975 49.1653 81.3535 48.248 85.9615 48.248H94.0255V47.48C94.0255 45.304 93.4068 43.704 92.1695 42.68C90.9322 41.656 89.3962 41.144 87.5615 41.144C85.8975 41.144 84.4468 41.5493 83.2095 42.36C81.9722 43.128 81.2042 44.28 80.9055 45.816H72.9055C73.1188 43.512 73.8868 41.5067 75.2095 39.8C76.5748 38.0933 78.3242 36.792 80.4575 35.896C82.5908 34.9573 84.9802 34.488 87.6255 34.488C92.1482 34.488 95.7108 35.6187 98.3135 37.88C100.916 40.1413 102.218 43.3413 102.218 47.48V67H95.2415L94.4735 61.88C93.5348 63.5867 92.2122 64.9947 90.5055 66.104C88.8415 67.2133 86.6868 67.768 84.0415 67.768ZM85.8975 61.368C88.2442 61.368 90.0575 60.6 91.3375 59.064C92.6602 57.528 93.4922 55.6293 93.8335 53.368H86.8575C84.6815 53.368 83.1242 53.7733 82.1855 54.584C81.2468 55.352 80.7775 56.312 80.7775 57.464C80.7775 58.7013 81.2468 59.6613 82.1855 60.344C83.1242 61.0267 84.3615 61.368 85.8975 61.368ZM110.035 67V20.92H118.227V40.12C119.294 38.3707 120.723 37.0053 122.515 36.024C124.35 35 126.44 34.488 128.787 34.488C132.712 34.488 135.742 35.7253 137.875 38.2C140.051 40.6747 141.139 44.3013 141.139 49.08V67H133.011V49.848C133.011 47.1173 132.456 45.0267 131.347 43.576C130.28 42.1253 128.574 41.4 126.227 41.4C123.923 41.4 122.003 42.2107 120.467 43.832C118.974 45.4533 118.227 47.7147 118.227 50.616V67H110.035ZM148.973 67V35.256H156.205L156.845 40.632C157.826 38.7547 159.234 37.2613 161.069 36.152C162.946 35.0427 165.143 34.488 167.661 34.488C171.586 34.488 174.637 35.7253 176.812 38.2C178.988 40.6747 180.076 44.3013 180.076 49.08V67H171.885V49.848C171.885 47.1173 171.33 45.0267 170.221 43.576C169.111 42.1253 167.383 41.4 165.037 41.4C162.733 41.4 160.834 42.2107 159.341 43.832C157.89 45.4533 157.165 47.7147 157.165 50.616V67H148.973ZM192.326 30.328C190.833 30.328 189.595 29.88 188.614 28.984C187.675 28.088 187.206 26.9573 187.206 25.592C187.206 24.2267 187.675 23.1173 188.614 22.264C189.595 21.368 190.833 20.92 192.326 20.92C193.819 20.92 195.035 21.368 195.974 22.264C196.955 23.1173 197.446 24.2267 197.446 25.592C197.446 26.9573 196.955 28.088 195.974 28.984C195.035 29.88 193.819 30.328 192.326 30.328ZM188.23 67V35.256H196.422V67H188.23ZM204.973 67V20.92H213.165V48.12L224.429 35.256H234.157L221.165 49.72L236.269 67H226.029L213.165 51.064V67H204.973ZM244.868 67.448C243.374 67.448 242.137 66.9787 241.156 66.04C240.217 65.1013 239.748 63.9707 239.748 62.648C239.748 61.2827 240.217 60.1307 241.156 59.192C242.137 58.2533 243.374 57.784 244.868 57.784C246.361 57.784 247.577 58.2533 248.516 59.192C249.497 60.1307 249.988 61.2827 249.988 62.648C249.988 63.9707 249.497 65.1013 248.516 66.04C247.577 66.9787 246.361 67.448 244.868 67.448ZM267.667 67.768C264.936 67.768 262.696 67.3413 260.947 66.488C259.197 65.592 257.896 64.4187 257.043 62.968C256.189 61.5173 255.763 59.9173 255.763 58.168C255.763 55.224 256.915 52.8347 259.219 51C261.523 49.1653 264.979 48.248 269.587 48.248H277.651V47.48C277.651 45.304 277.032 43.704 275.795 42.68C274.557 41.656 273.021 41.144 271.187 41.144C269.523 41.144 268.072 41.5493 266.835 42.36C265.597 43.128 264.829 44.28 264.531 45.816H256.531C256.744 43.512 257.512 41.5067 258.835 39.8C260.2 38.0933 261.949 36.792 264.083 35.896C266.216 34.9573 268.605 34.488 271.251 34.488C275.773 34.488 279.336 35.6187 281.939 37.88C284.541 40.1413 285.843 43.3413 285.843 47.48V67H278.867L278.099 61.88C277.16 63.5867 275.837 64.9947 274.131 66.104C272.467 67.2133 270.312 67.768 267.667 67.768ZM269.523 61.368C271.869 61.368 273.683 60.6 274.963 59.064C276.285 57.528 277.117 55.6293 277.459 53.368H270.483C268.307 53.368 266.749 53.7733 265.811 54.584C264.872 55.352 264.403 56.312 264.403 57.464C264.403 58.7013 264.872 59.6613 265.811 60.344C266.749 61.0267 267.987 61.368 269.523 61.368ZM298.076 30.328C296.583 30.328 295.345 29.88 294.364 28.984C293.425 28.088 292.956 26.9573 292.956 25.592C292.956 24.2267 293.425 23.1173 294.364 22.264C295.345 21.368 296.583 20.92 298.076 20.92C299.569 20.92 300.785 21.368 301.724 22.264C302.705 23.1173 303.196 24.2267 303.196 25.592C303.196 26.9573 302.705 28.088 301.724 28.984C300.785 29.88 299.569 30.328 298.076 30.328ZM293.98 67V35.256H302.172V67H293.98Z" fill="#101820"/>
<path d="M16.352 67H15.352V68H16.352V67ZM16.352 22.2V21.2H15.352V22.2H16.352ZM44.96 25.464L44.2932 26.2092L44.3001 26.2154L44.3071 26.2214L44.96 25.464ZM46.368 40.504L45.6247 39.835L45.6238 39.8361L46.368 40.504ZM40.864 43.896L40.5993 42.9317L40.6679 44.8766L40.864 43.896ZM47.2 47.736L46.4238 48.3666L46.4304 48.3746L47.2 47.736ZM45.856 63.544L46.525 64.2873L46.525 64.2873L45.856 63.544ZM24.544 41.016H23.544V42.016H24.544V41.016ZM38.432 30.456L37.7516 31.1888L37.7651 31.2014L37.7791 31.2134L38.432 30.456ZM24.544 28.792V27.792H23.544V28.792H24.544ZM24.544 60.344H23.544V61.344H24.544V60.344ZM39.328 58.68L39.9706 59.4462L39.9729 59.4443L39.328 58.68ZM39.264 48.952L39.911 48.1895L39.911 48.1895L39.264 48.952ZM24.544 47.16V46.16H23.544V47.16H24.544ZM17.352 67V22.2H15.352V67H17.352ZM16.352 23.2H34.336V21.2H16.352V23.2ZM34.336 23.2C38.8444 23.2 42.1094 24.2553 44.2932 26.2092L45.6268 24.7188C42.9466 22.3207 39.129 21.2 34.336 21.2V23.2ZM44.3071 26.2214C46.5535 28.158 47.672 30.6297 47.672 33.72H49.672C49.672 30.0689 48.3158 27.0367 45.6129 24.7066L44.3071 26.2214ZM47.672 33.72C47.672 36.3475 46.9601 38.3513 45.6247 39.835L47.1113 41.173C48.8479 39.2434 49.672 36.7245 49.672 33.72H47.672ZM45.6238 39.8361C44.2598 41.3559 42.5921 42.3846 40.5993 42.9317L41.1287 44.8603C43.4879 44.2127 45.4896 42.9801 47.1122 41.1719L45.6238 39.8361ZM40.6679 44.8766C42.9971 45.3424 44.9049 46.4971 46.4239 48.3666L47.9761 47.1054C46.1671 44.8789 43.851 43.4736 41.0601 42.9154L40.6679 44.8766ZM46.4304 48.3746C47.9405 50.1944 48.696 52.3132 48.696 54.776H50.696C50.696 51.8628 49.7875 49.2883 47.9696 47.0974L46.4304 48.3746ZM48.696 54.776C48.696 58.043 47.5296 60.6924 45.187 62.8007L46.525 64.2873C49.3024 61.7876 50.696 58.5917 50.696 54.776H48.696ZM45.187 62.8007C42.8683 64.8876 39.5127 66 34.976 66V68C39.826 68 43.7237 66.8084 46.525 64.2873L45.187 62.8007ZM34.976 66H16.352V68H34.976V66ZM24.544 42.016H33.12V40.016H24.544V42.016ZM33.12 42.016C35.5663 42.016 37.6038 41.4502 39.0849 40.1734L37.7791 38.6586C36.7855 39.5151 35.2817 40.016 33.12 40.016V42.016ZM39.0849 40.1734C40.587 38.8785 41.288 37.0614 41.288 34.872H39.288C39.288 36.608 38.7516 37.8202 37.7791 38.6586L39.0849 40.1734ZM41.288 34.872C41.288 32.752 40.5767 30.9846 39.0849 29.6986L37.7791 31.2134C38.762 32.0607 39.288 33.2374 39.288 34.872H41.288ZM39.1125 29.7232C37.6597 28.3742 35.5548 27.792 32.992 27.792V29.792C35.2932 29.792 36.815 30.3191 37.7516 31.1888L39.1125 29.7232ZM32.992 27.792H24.544V29.792H32.992V27.792ZM23.544 28.792V41.016H25.544V28.792H23.544ZM24.544 61.344H33.696V59.344H24.544V61.344ZM33.696 61.344C36.2682 61.344 38.4066 60.758 39.9706 59.4462L38.6854 57.9138C37.6041 58.8207 35.9878 59.344 33.696 59.344V61.344ZM39.9729 59.4443C41.5978 58.0733 42.376 56.1745 42.376 53.88H40.376C40.376 55.6815 39.7889 56.9827 38.6831 57.9157L39.9729 59.4443ZM42.376 53.88C42.376 51.5391 41.5741 49.6006 39.911 48.1895L38.617 49.7145C39.7699 50.6927 40.376 52.0395 40.376 53.88H42.376ZM39.911 48.1895C38.2746 46.8011 36.1233 46.16 33.568 46.16V48.16C35.7914 48.16 37.4374 48.7136 38.617 49.7145L39.911 48.1895ZM33.568 46.16H24.544V48.16H33.568V46.16ZM23.544 47.16V60.344H25.544V47.16H23.544ZM56.535 67H55.535V68H56.535V67ZM56.535 20.92V19.92H55.535V20.92H56.535ZM64.727 20.92H65.727V19.92H64.727V20.92ZM64.727 67V68H65.727V67H64.727ZM57.535 67V20.92H55.535V67H57.535ZM56.535 21.92H64.727V19.92H56.535V21.92ZM63.727 20.92V67H65.727V20.92H63.727ZM64.727 66H56.535V68H64.727V66ZM77.3215 66.488L76.8656 67.378L76.8743 67.3825L76.8831 67.3868L77.3215 66.488ZM73.4175 62.968L72.5556 63.475L72.5556 63.475L73.4175 62.968ZM75.5935 51L76.2164 51.7823L76.2164 51.7823L75.5935 51ZM94.0255 48.248V49.248H95.0255V48.248H94.0255ZM92.1695 42.68L92.8071 41.9096L92.8071 41.9096L92.1695 42.68ZM83.2095 42.36L83.7369 43.2096L83.7473 43.2032L83.7575 43.1965L83.2095 42.36ZM80.9055 45.816V46.816H81.7298L81.8871 46.0069L80.9055 45.816ZM72.9055 45.816L71.9098 45.7238L71.8086 46.816H72.9055V45.816ZM75.2095 39.8L74.4286 39.1753L74.4238 39.1813L74.4191 39.1874L75.2095 39.8ZM80.4575 35.896L80.8447 36.818L80.8525 36.8147L80.8602 36.8113L80.4575 35.896ZM98.3135 37.88L97.6576 38.6349L97.6576 38.6349L98.3135 37.88ZM102.218 67V68H103.218V67H102.218ZM95.2415 67L94.2526 67.1483L94.3803 68H95.2415V67ZM94.4735 61.88L95.4624 61.7317L95.0234 58.8051L93.5973 61.3981L94.4735 61.88ZM90.5055 66.104L89.9605 65.2655L89.9508 65.2719L90.5055 66.104ZM91.3375 59.064L90.5797 58.4115L90.5745 58.4176L90.5693 58.4238L91.3375 59.064ZM93.8335 53.368L94.8223 53.5173L94.9958 52.368H93.8335V53.368ZM82.1855 54.584L82.8187 55.358L82.829 55.3495L82.8391 55.3408L82.1855 54.584ZM82.1855 60.344L82.7737 59.5353L82.7737 59.5353L82.1855 60.344ZM84.0415 66.768C81.4054 66.768 79.3291 66.3547 77.7599 65.5892L76.8831 67.3868C78.8126 68.328 81.2163 68.768 84.0415 68.768V66.768ZM77.7774 65.598C76.1681 64.7737 75.0213 63.7221 74.2794 62.461L72.5556 63.475C73.5204 65.1152 74.9762 66.4103 76.8656 67.378L77.7774 65.598ZM74.2794 62.461C73.5201 61.1702 73.1375 59.7464 73.1375 58.168H71.1375C71.1375 60.0883 71.6082 61.8645 72.5556 63.475L74.2794 62.461ZM73.1375 58.168C73.1375 55.5287 74.1506 53.4273 76.2164 51.7823L74.9706 50.2177C72.4284 52.242 71.1375 54.9193 71.1375 58.168H73.1375ZM76.2164 51.7823C78.268 50.1487 81.4595 49.248 85.9615 49.248V47.248C81.2475 47.248 77.527 48.182 74.9706 50.2177L76.2164 51.7823ZM85.9615 49.248H94.0255V47.248H85.9615V49.248ZM95.0255 48.248V47.48H93.0255V48.248H95.0255ZM95.0255 47.48C95.0255 45.1181 94.3482 43.185 92.8071 41.9096L91.5319 43.4504C92.4655 44.223 93.0255 45.4899 93.0255 47.48H95.0255ZM92.8071 41.9096C91.3652 40.7163 89.5939 40.144 87.5615 40.144V42.144C89.1984 42.144 90.4992 42.5957 91.5319 43.4504L92.8071 41.9096ZM87.5615 40.144C85.7279 40.144 84.0815 40.5932 82.6615 41.5235L83.7575 43.1965C84.8122 42.5055 86.0671 42.144 87.5615 42.144V40.144ZM82.6821 41.5104C81.1893 42.437 80.2713 43.8387 79.9239 45.6251L81.8871 46.0069C82.1371 44.7213 82.7551 43.819 83.7369 43.2096L82.6821 41.5104ZM80.9055 44.816H72.9055V46.816H80.9055V44.816ZM73.9012 45.9082C74.0983 43.7795 74.8022 41.958 75.9999 40.4126L74.4191 39.1874C72.9714 41.0554 72.1393 43.2445 71.9098 45.7238L73.9012 45.9082ZM75.9904 40.4247C77.2452 38.8561 78.856 37.6532 80.8447 36.818L80.0703 34.974C77.7923 35.9308 75.9044 37.3305 74.4286 39.1753L75.9904 40.4247ZM80.8602 36.8113C82.8506 35.9356 85.1001 35.488 87.6255 35.488V33.488C84.8602 33.488 82.3311 33.9791 80.0548 34.9807L80.8602 36.8113ZM87.6255 35.488C91.9836 35.488 95.2873 36.5754 97.6576 38.6349L98.9694 37.1251C96.1343 34.6619 92.3127 33.488 87.6255 33.488V35.488ZM97.6576 38.6349C99.9979 40.6682 101.218 43.5674 101.218 47.48H103.218C103.218 43.1153 101.834 39.6144 98.9694 37.1251L97.6576 38.6349ZM101.218 47.48V67H103.218V47.48H101.218ZM102.218 66H95.2415V68H102.218V66ZM96.2304 66.8517L95.4624 61.7317L93.4846 62.0283L94.2526 67.1483L96.2304 66.8517ZM93.5973 61.3981C92.7416 62.9539 91.5355 64.2418 89.9605 65.2656L91.0505 66.9424C92.8888 65.7475 94.3281 64.2195 95.3497 62.3619L93.5973 61.3981ZM89.9508 65.2719C88.4964 66.2415 86.552 66.768 84.0415 66.768V68.768C86.8216 68.768 89.1866 68.1851 91.0602 66.9361L89.9508 65.2719ZM85.8975 62.368C88.4837 62.368 90.6019 61.5088 92.1057 59.7042L90.5693 58.4238C89.5131 59.6912 88.0046 60.368 85.8975 60.368V62.368ZM92.0953 59.7165C93.556 58.0202 94.4566 55.9402 94.8223 53.5173L92.8447 53.2187C92.5278 55.3185 91.7643 57.0358 90.5797 58.4115L92.0953 59.7165ZM93.8335 52.368H86.8575V54.368H93.8335V52.368ZM86.8575 52.368C84.6054 52.368 82.7464 52.7783 81.5319 53.8272L82.8391 55.3408C83.5019 54.7684 84.7576 54.368 86.8575 54.368V52.368ZM81.5523 53.81C80.3956 54.7564 79.7775 55.9943 79.7775 57.464H81.7775C81.7775 56.6297 82.0981 55.9476 82.8187 55.358L81.5523 53.81ZM79.7775 57.464C79.7775 58.9965 80.3805 60.2678 81.5973 61.1527L82.7737 59.5353C82.1131 59.0549 81.7775 58.4061 81.7775 57.464H79.7775ZM81.5973 61.1527C82.7546 61.9944 84.218 62.368 85.8975 62.368V60.368C84.505 60.368 83.4937 60.0589 82.7737 59.5353L81.5973 61.1527ZM110.035 67H109.035V68H110.035V67ZM110.035 20.92V19.92H109.035V20.92H110.035ZM118.227 20.92H119.227V19.92H118.227V20.92ZM118.227 40.12H117.227V43.6808L119.081 40.6406L118.227 40.12ZM122.515 36.024L122.995 36.9011L123.002 36.8972L122.515 36.024ZM137.875 38.2L137.118 38.853L137.124 38.8603L137.875 38.2ZM141.139 67V68H142.139V67H141.139ZM133.011 67H132.011V68H133.011V67ZM131.347 43.576L130.541 44.1684L130.547 44.176L130.553 44.1834L131.347 43.576ZM120.467 43.832L119.741 43.1442L119.731 43.1545L120.467 43.832ZM118.227 67V68H119.227V67H118.227ZM111.035 67V20.92H109.035V67H111.035ZM110.035 21.92H118.227V19.92H110.035V21.92ZM117.227 20.92V40.12H119.227V20.92H117.227ZM119.081 40.6406C120.057 39.0403 121.357 37.7981 122.995 36.9011L122.035 35.1469C120.089 36.2126 118.531 37.701 117.373 39.5994L119.081 40.6406ZM123.002 36.8972C124.671 35.9657 126.591 35.488 128.787 35.488V33.488C126.29 33.488 124.028 34.0343 122.028 35.1508L123.002 36.8972ZM128.787 35.488C132.486 35.488 135.212 36.643 137.118 38.8529L138.632 37.5471C136.271 34.8076 132.939 33.488 128.787 33.488V35.488ZM137.124 38.8603C139.08 41.0853 140.139 44.4369 140.139 49.08H142.139C142.139 44.1658 141.022 40.264 138.626 37.5397L137.124 38.8603ZM140.139 49.08V67H142.139V49.08H140.139ZM141.139 66H133.011V68H141.139V66ZM134.011 67V49.848H132.011V67H134.011ZM134.011 49.848C134.011 47.0015 133.436 44.6612 132.141 42.9685L130.553 44.1834C131.477 45.3922 132.011 47.2332 132.011 49.848H134.011ZM132.153 42.9836C130.843 41.2019 128.786 40.4 126.227 40.4V42.4C128.361 42.4 129.718 43.0488 130.541 44.1684L132.153 42.9836ZM126.227 40.4C123.658 40.4 121.473 41.3166 119.741 43.1443L121.193 44.5197C122.533 43.1048 124.188 42.4 126.227 42.4V40.4ZM119.731 43.1545C118.02 45.0127 117.227 47.545 117.227 50.616H119.227C119.227 47.8843 119.927 45.894 121.203 44.5095L119.731 43.1545ZM117.227 50.616V67H119.227V50.616H117.227ZM118.227 66H110.035V68H118.227V66ZM148.973 67H147.973V68H148.973V67ZM148.973 35.256V34.256H147.973V35.256H148.973ZM156.205 35.256L157.197 35.1378L157.093 34.256H156.205V35.256ZM156.845 40.632L155.852 40.7502L156.234 43.9594L157.731 41.0953L156.845 40.632ZM161.069 36.152L160.56 35.291L160.551 35.2963L161.069 36.152ZM176.812 38.2L176.062 38.8603L176.062 38.8603L176.812 38.2ZM180.076 67V68H181.076V67H180.076ZM171.885 67H170.885V68H171.885V67ZM170.221 43.576L171.015 42.9685L171.015 42.9685L170.221 43.576ZM159.341 43.832L158.605 43.1545L158.6 43.1598L158.595 43.1652L159.341 43.832ZM157.165 67V68H158.165V67H157.165ZM149.973 67V35.256H147.973V67H149.973ZM148.973 36.256H156.205V34.256H148.973V36.256ZM155.212 35.3742L155.852 40.7502L157.837 40.5138L157.197 35.1378L155.212 35.3742ZM157.731 41.0953C158.626 39.3821 159.906 38.0236 161.586 37.0077L160.551 35.2963C158.562 36.499 157.025 38.1273 155.958 40.1687L157.731 41.0953ZM161.577 37.0129C163.278 36.0079 165.294 35.488 167.661 35.488V33.488C164.992 33.488 162.614 34.0774 160.56 35.2911L161.577 37.0129ZM167.661 35.488C171.359 35.488 174.112 36.643 176.062 38.8603L177.563 37.5397C175.161 34.8076 171.813 33.488 167.661 33.488V35.488ZM176.062 38.8603C178.018 41.0853 179.076 44.4369 179.076 49.08H181.076C181.076 44.1658 179.959 40.264 177.563 37.5397L176.062 38.8603ZM179.076 49.08V67H181.076V49.08H179.076ZM180.076 66H171.885V68H180.076V66ZM172.885 67V49.848H170.885V67H172.885ZM172.885 49.848C172.885 47.0015 172.309 44.6612 171.015 42.9685L169.426 44.1834C170.35 45.3922 170.885 47.2332 170.885 49.848H172.885ZM171.015 42.9685C169.664 41.2023 167.597 40.4 165.037 40.4V42.4C167.169 42.4 168.558 43.0484 169.426 44.1834L171.015 42.9685ZM165.037 40.4C162.467 40.4 160.297 41.3173 158.605 43.1545L160.076 44.5095C161.371 43.104 162.998 42.4 165.037 42.4V40.4ZM158.595 43.1652C156.932 45.0238 156.165 47.552 156.165 50.616H158.165C158.165 47.8773 158.847 45.8829 160.086 44.4988L158.595 43.1652ZM156.165 50.616V67H158.165V50.616H156.165ZM157.165 66H148.973V68H157.165V66ZM188.614 28.984L187.924 29.7074L187.932 29.715L187.94 29.7225L188.614 28.984ZM188.614 22.264L189.287 23.0039L189.288 23.0025L188.614 22.264ZM195.974 22.264L195.284 22.9874L195.3 23.0034L195.318 23.0186L195.974 22.264ZM195.974 28.984L195.3 28.2455L195.292 28.253L195.284 28.2606L195.974 28.984ZM188.23 67H187.23V68H188.23V67ZM188.23 35.256V34.256H187.23V35.256H188.23ZM196.422 35.256H197.422V34.256H196.422V35.256ZM196.422 67V68H197.422V67H196.422ZM192.326 29.328C191.049 29.328 190.062 28.9521 189.288 28.2455L187.94 29.7225C189.128 30.8079 190.616 31.328 192.326 31.328V29.328ZM189.304 28.2606C188.575 27.5641 188.206 26.7 188.206 25.592H186.206C186.206 27.2146 186.776 28.6119 187.924 29.7074L189.304 28.2606ZM188.206 25.592C188.206 24.4843 188.574 23.6521 189.287 23.0039L187.941 21.5241C186.777 22.5826 186.206 23.969 186.206 25.592H188.206ZM189.288 23.0025C190.062 22.2959 191.049 21.92 192.326 21.92V19.92C190.616 19.92 189.128 20.4401 187.94 21.5255L189.288 23.0025ZM192.326 21.92C193.604 21.92 194.559 22.2958 195.284 22.9874L196.664 21.5406C195.512 20.4402 194.035 19.92 192.326 19.92V21.92ZM195.318 23.0186C196.069 23.6715 196.446 24.4997 196.446 25.592H198.446C198.446 23.9537 197.842 22.5632 196.63 21.5094L195.318 23.0186ZM196.446 25.592C196.446 26.6851 196.067 27.5448 195.3 28.2455L196.648 29.7225C197.843 28.6312 198.446 27.2296 198.446 25.592H196.446ZM195.284 28.2606C194.559 28.9522 193.604 29.328 192.326 29.328V31.328C194.035 31.328 195.512 30.8078 196.664 29.7074L195.284 28.2606ZM189.23 67V35.256H187.23V67H189.23ZM188.23 36.256H196.422V34.256H188.23V36.256ZM195.422 35.256V67H197.422V35.256H195.422ZM196.422 66H188.23V68H196.422V66ZM204.973 67H203.973V68H204.973V67ZM204.973 20.92V19.92H203.973V20.92H204.973ZM213.165 20.92H214.165V19.92H213.165V20.92ZM213.165 48.12H212.165V50.78L213.917 48.7788L213.165 48.12ZM224.429 35.256V34.256H223.975L223.676 34.5972L224.429 35.256ZM234.157 35.256L234.9 35.9242L236.399 34.256H234.157V35.256ZM221.165 49.72L220.421 49.0518L219.828 49.711L220.412 50.3781L221.165 49.72ZM236.269 67V68H238.471L237.021 66.3419L236.269 67ZM226.029 67L225.25 67.6281L225.551 68H226.029V67ZM213.165 51.064L213.943 50.4359L212.165 48.2331V51.064H213.165ZM213.165 67V68H214.165V67H213.165ZM205.973 67V20.92H203.973V67H205.973ZM204.973 21.92H213.165V19.92H204.973V21.92ZM212.165 20.92V48.12H214.165V20.92H212.165ZM213.917 48.7788L225.181 35.9148L223.676 34.5972L212.412 47.4612L213.917 48.7788ZM224.429 36.256H234.157V34.256H224.429V36.256ZM233.413 34.5878L220.421 49.0518L221.908 50.3882L234.9 35.9242L233.413 34.5878ZM220.412 50.3781L235.516 67.6581L237.021 66.3419L221.917 49.0619L220.412 50.3781ZM236.269 66H226.029V68H236.269V66ZM226.807 66.3719L213.943 50.4359L212.386 51.6921L225.25 67.6281L226.807 66.3719ZM212.165 51.064V67H214.165V51.064H212.165ZM213.165 66H204.973V68H213.165V66ZM241.156 66.04L240.448 66.7471L240.456 66.755L240.464 66.7626L241.156 66.04ZM241.156 59.192L240.464 58.4694L240.456 58.477L240.448 58.4849L241.156 59.192ZM248.516 59.192L247.808 59.8991L247.816 59.907L247.824 59.9146L248.516 59.192ZM248.516 66.04L247.824 65.3174L247.816 65.325L247.808 65.3329L248.516 66.04ZM244.868 66.448C243.604 66.448 242.623 66.0596 241.847 65.3174L240.464 66.7626C241.651 67.8978 243.145 68.448 244.868 68.448V66.448ZM241.863 65.3329C241.111 64.581 240.748 63.7044 240.748 62.648H238.748C238.748 64.237 239.323 65.6217 240.448 66.7471L241.863 65.3329ZM240.748 62.648C240.748 61.5394 241.117 60.6443 241.863 59.8991L240.448 58.4849C239.316 59.617 238.748 61.0259 238.748 62.648H240.748ZM241.847 59.9146C242.623 59.1724 243.604 58.784 244.868 58.784V56.784C243.145 56.784 241.651 57.3342 240.464 58.4694L241.847 59.9146ZM244.868 58.784C246.132 58.784 247.081 59.1721 247.808 59.8991L249.223 58.4849C248.072 57.3346 246.59 56.784 244.868 56.784V58.784ZM247.824 59.9146C248.607 60.6635 248.988 61.5539 248.988 62.648H250.988C250.988 61.0114 250.386 59.5978 249.207 58.4694L247.824 59.9146ZM248.988 62.648C248.988 63.6896 248.614 64.5617 247.824 65.3174L249.207 66.7626C250.379 65.641 250.988 64.2517 250.988 62.648H248.988ZM247.808 65.3329C247.081 66.0599 246.132 66.448 244.868 66.448V68.448C246.59 68.448 248.072 67.8974 249.223 66.7471L247.808 65.3329ZM260.947 66.488L260.491 67.378L260.499 67.3825L260.508 67.3868L260.947 66.488ZM257.043 62.968L256.181 63.475L256.181 63.475L257.043 62.968ZM259.219 51L259.841 51.7823L259.841 51.7823L259.219 51ZM277.651 48.248V49.248H278.651V48.248H277.651ZM275.795 42.68L276.432 41.9096L276.432 41.9096L275.795 42.68ZM266.835 42.36L267.362 43.2096L267.372 43.2032L267.383 43.1965L266.835 42.36ZM264.531 45.816V46.816H265.355L265.512 46.0069L264.531 45.816ZM256.531 45.816L255.535 45.7238L255.434 46.816H256.531V45.816ZM258.835 39.8L258.054 39.1753L258.049 39.1813L258.044 39.1874L258.835 39.8ZM264.083 35.896L264.47 36.818L264.478 36.8147L264.485 36.8113L264.083 35.896ZM281.939 37.88L281.283 38.6349L281.283 38.6349L281.939 37.88ZM285.843 67V68H286.843V67H285.843ZM278.867 67L277.878 67.1483L278.005 68H278.867V67ZM278.099 61.88L279.087 61.7317L278.648 58.8051L277.222 61.3981L278.099 61.88ZM274.131 66.104L273.585 65.2655L273.576 65.2719L274.131 66.104ZM274.963 59.064L274.205 58.4115L274.199 58.4176L274.194 58.4238L274.963 59.064ZM277.459 53.368L278.447 53.5173L278.621 52.368H277.459V53.368ZM265.811 54.584L266.444 55.358L266.454 55.3495L266.464 55.3408L265.811 54.584ZM265.811 60.344L266.399 59.5353L266.399 59.5353L265.811 60.344ZM267.667 66.768C265.03 66.768 262.954 66.3547 261.385 65.5892L260.508 67.3868C262.438 68.328 264.841 68.768 267.667 68.768V66.768ZM261.402 65.598C259.793 64.7737 258.646 63.7221 257.904 62.461L256.181 63.475C257.145 65.1152 258.601 66.4103 260.491 67.378L261.402 65.598ZM257.904 62.461C257.145 61.1702 256.763 59.7464 256.763 58.168H254.763C254.763 60.0883 255.233 61.8645 256.181 63.475L257.904 62.461ZM256.763 58.168C256.763 55.5287 257.776 53.4273 259.841 51.7823L258.596 50.2177C256.053 52.242 254.763 54.9193 254.763 58.168H256.763ZM259.841 51.7823C261.893 50.1487 265.085 49.248 269.587 49.248V47.248C264.872 47.248 261.152 48.182 258.596 50.2177L259.841 51.7823ZM269.587 49.248H277.651V47.248H269.587V49.248ZM278.651 48.248V47.48H276.651V48.248H278.651ZM278.651 47.48C278.651 45.1181 277.973 43.185 276.432 41.9096L275.157 43.4504C276.09 44.223 276.651 45.4899 276.651 47.48H278.651ZM276.432 41.9096C274.99 40.7163 273.219 40.144 271.187 40.144V42.144C272.823 42.144 274.124 42.5957 275.157 43.4504L276.432 41.9096ZM271.187 40.144C269.353 40.144 267.706 40.5932 266.286 41.5235L267.383 43.1965C268.437 42.5055 269.692 42.144 271.187 42.144V40.144ZM266.307 41.5104C264.814 42.437 263.896 43.8387 263.549 45.6251L265.512 46.0069C265.762 44.7213 266.38 43.819 267.362 43.2096L266.307 41.5104ZM264.531 44.816H256.531V46.816H264.531V44.816ZM257.526 45.9082C257.723 43.7795 258.427 41.958 259.625 40.4126L258.044 39.1874C256.596 41.0554 255.764 43.2445 255.535 45.7238L257.526 45.9082ZM259.615 40.4247C260.87 38.8561 262.481 37.6532 264.47 36.818L263.695 34.974C261.417 35.9308 259.529 37.3305 258.054 39.1753L259.615 40.4247ZM264.485 36.8113C266.476 35.9356 268.725 35.488 271.251 35.488V33.488C268.485 33.488 265.956 33.9791 263.68 34.9807L264.485 36.8113ZM271.251 35.488C275.609 35.488 278.912 36.5754 281.283 38.6349L282.594 37.1251C279.759 34.6619 275.938 33.488 271.251 33.488V35.488ZM281.283 38.6349C283.623 40.6682 284.843 43.5674 284.843 47.48H286.843C286.843 43.1153 285.459 39.6144 282.594 37.1251L281.283 38.6349ZM284.843 47.48V67H286.843V47.48H284.843ZM285.843 66H278.867V68H285.843V66ZM279.855 66.8517L279.087 61.7317L277.11 62.0283L277.878 67.1483L279.855 66.8517ZM277.222 61.3981C276.367 62.9539 275.161 64.2418 273.586 65.2656L274.675 66.9424C276.514 65.7475 277.953 64.2195 278.975 62.3619L277.222 61.3981ZM273.576 65.2719C272.121 66.2415 270.177 66.768 267.667 66.768V68.768C270.447 68.768 272.812 68.1851 274.685 66.9361L273.576 65.2719ZM269.523 62.368C272.109 62.368 274.227 61.5088 275.731 59.7042L274.194 58.4238C273.138 59.6912 271.63 60.368 269.523 60.368V62.368ZM275.72 59.7165C277.181 58.0202 278.082 55.9402 278.447 53.5173L276.47 53.2187C276.153 55.3185 275.389 57.0358 274.205 58.4115L275.72 59.7165ZM277.459 52.368H270.483V54.368H277.459V52.368ZM270.483 52.368C268.23 52.368 266.371 52.7783 265.157 53.8272L266.464 55.3408C267.127 54.7684 268.383 54.368 270.483 54.368V52.368ZM265.177 53.81C264.021 54.7564 263.403 55.9943 263.403 57.464H265.403C265.403 56.6297 265.723 55.9476 266.444 55.358L265.177 53.81ZM263.403 57.464C263.403 58.9965 264.006 60.2678 265.222 61.1527L266.399 59.5353C265.738 59.0549 265.403 58.4061 265.403 57.464H263.403ZM265.222 61.1527C266.38 61.9944 267.843 62.368 269.523 62.368V60.368C268.13 60.368 267.119 60.0589 266.399 59.5353L265.222 61.1527ZM294.364 28.984L293.674 29.7074L293.682 29.715L293.69 29.7225L294.364 28.984ZM294.364 22.264L295.037 23.0039L295.038 23.0025L294.364 22.264ZM301.724 22.264L301.034 22.9874L301.05 23.0034L301.068 23.0186L301.724 22.264ZM301.724 28.984L301.05 28.2455L301.042 28.253L301.034 28.2606L301.724 28.984ZM293.98 67H292.98V68H293.98V67ZM293.98 35.256V34.256H292.98V35.256H293.98ZM302.172 35.256H303.172V34.256H302.172V35.256ZM302.172 67V68H303.172V67H302.172ZM298.076 29.328C296.799 29.328 295.812 28.9521 295.038 28.2455L293.69 29.7225C294.878 30.8079 296.366 31.328 298.076 31.328V29.328ZM295.054 28.2606C294.325 27.5641 293.956 26.7 293.956 25.592H291.956C291.956 27.2146 292.526 28.6119 293.674 29.7074L295.054 28.2606ZM293.956 25.592C293.956 24.4843 294.324 23.6521 295.037 23.0039L293.691 21.5241C292.527 22.5826 291.956 23.969 291.956 25.592H293.956ZM295.038 23.0025C295.812 22.2959 296.799 21.92 298.076 21.92V19.92C296.366 19.92 294.878 20.4401 293.69 21.5255L295.038 23.0025ZM298.076 21.92C299.354 21.92 300.309 22.2958 301.034 22.9874L302.414 21.5406C301.262 20.4402 299.785 19.92 298.076 19.92V21.92ZM301.068 23.0186C301.819 23.6715 302.196 24.4997 302.196 25.592H304.196C304.196 23.9537 303.592 22.5632 302.38 21.5094L301.068 23.0186ZM302.196 25.592C302.196 26.6851 301.817 27.5448 301.05 28.2455L302.398 29.7225C303.593 28.6312 304.196 27.2296 304.196 25.592H302.196ZM301.034 28.2606C300.309 28.9522 299.354 29.328 298.076 29.328V31.328C299.785 31.328 301.262 30.8078 302.414 29.7074L301.034 28.2606ZM294.98 67V35.256H292.98V67H294.98ZM293.98 36.256H302.172V34.256H293.98V36.256ZM301.172 35.256V67H303.172V35.256H301.172ZM302.172 66H293.98V68H302.172V66Z" fill="black"/>
</svg>
